<?xml version="1.0" standalone="no"?>
<!DOCTYPE svg PUBLIC "-//W3C//DTD SVG 20010904//EN"
 "http://www.w3.org/TR/2001/REC-SVG-20010904/DTD/svg10.dtd">
<svg version="1.0" xmlns="http://www.w3.org/2000/svg"
 width="900.000000pt" height="900.000000pt" viewBox="0 0 900.000000 900.000000"
 preserveAspectRatio="xMidYMid meet">

<g transform="translate(0.000000,900.000000) scale(0.100000,-0.100000)"
fill="#000000" stroke="none">
<path d="M4350 7694 c-431 -29 -774 -109 -1136 -264 -235 -100 -504 -263 -719
-434 -128 -103 -388 -363 -491 -491 -378 -476 -606 -1024 -680 -1640 -23 -189
-23 -541 0 -730 74 -616 302 -1164 680 -1640 103 -128 363 -388 491 -491 406
-323 866 -536 1375 -638 402 -80 858 -80 1260 0 509 102 969 315 1375 638 128
103 388 363 491 491 378 476 606 1024 680 1640 23 189 23 541 0 730 -74 616
-302 1164 -680 1640 -103 128 -363 388 -491 491 -475 378 -1037 611 -1635 678
-139 16 -422 27 -520 20z m382 -552 c4 -4 43 -68 88 -142 156 -259 309 -585
404 -860 44 -124 106 -332 106 -352 0 -4 -298 -8 -662 -8 l-663 0 -44 85 c-29
59 -67 111 -118 165 l-75 80 23 63 c93 253 281 622 451 884 l59 92 67 4 c88 5
355 -3 364 -11z m-1162 -156 c0 -2 -33 -71 -74 -153 -71 -143 -175 -380 -231
-530 l-26 -72 -57 -16 c-106 -31 -191 -84 -283 -175 -71 -70 -94 -102 -129
-173 l-42 -87 -274 0 c-182 0 -274 3 -274 10 0 6 28 56 63 111 281 453 700
815 1202 1040 106 47 125 54 125 45z m2158 -131 c244 -127 443 -275 648 -479
171 -172 322 -365 428 -549 l28 -47 -467 2 -468 3 -42 160 c-87 323 -216 667
-356 947 -22 43 -39 80 -39 82 0 9 147 -56 268 -119z m-2914 -1665 c17 -25 61
-76 98 -114 l67 -69 -16 -201 c-16 -210 -13 -638 6 -816 5 -47 12 -118 16
-157 l8 -73 -517 0 -517 0 -15 35 c-66 159 -110 562 -93 850 12 206 65 511
100 577 9 17 33 18 422 16 l411 -3 30 -45z m2640 42 c28 -45 56 -691 41 -954
l-7 -138 -42 -11 c-67 -17 -197 -85 -252 -131 -64 -53 -117 -117 -156 -186
l-30 -52 -736 2 -737 3 -7 55 c-41 325 -55 714 -35 972 l9 106 46 12 c132 33
273 130 366 254 l57 76 739 0 c406 0 741 -4 744 -8z m1603 -29 c22 -55 60
-231 78 -368 22 -162 22 -480 1 -650 -17 -131 -60 -357 -76 -401 l-10 -24
-409 0 -409 0 -32 58 c-18 31 -68 93 -111 138 -44 44 -77 82 -75 85 2 2 9 110
16 239 12 252 2 592 -24 825 -8 66 -12 123 -9 128 2 4 238 7 524 7 l520 0 16
-37z m-3938 -2100 c80 -306 205 -647 336 -920 41 -84 72 -153 69 -153 -2 0
-49 20 -104 44 -422 188 -807 503 -1087 891 -50 69 -163 249 -163 260 0 3 206
5 458 5 l458 0 33 -127z m1901 71 c32 -65 104 -158 160 -205 41 -35 47 -44 40
-63 -5 -11 -37 -93 -71 -181 -99 -253 -299 -637 -439 -840 l-31 -45 -153 0
c-84 0 -181 3 -216 7 l-62 6 -42 66 c-216 338 -420 793 -530 1184 l-34 117
678 0 678 0 22 -46z m1780 -11 c-91 -162 -231 -344 -395 -512 -248 -254 -553
-465 -871 -602 -63 -27 -116 -49 -119 -49 -2 0 27 61 65 135 82 163 182 397
239 560 l42 121 74 23 c78 24 185 88 248 149 49 46 122 148 142 196 l15 36
296 0 296 0 -32 -57z"/>
</g>
</svg>
